# xmcd
#
# Track frame offsets:
#	150
#	11915
#	28443
#	50928
#	71139
#	85842
#	104945
#	121492
#	133162
#	153377
#	169964
#	183427
#	199482
#	225430
#
# Disc length: 3277 seconds
#
# Revision: 2
# Processed by: cddbd v1.5.2PL0 Copyright (c) Steve Scherf et al.
# Submitted via: audiograbber 1.83.01
#
DISCID=db0ccb0e
DTITLE=Various Artist - SBG6
DYEAR=1900
DGENRE=Karaoke
TTITLE0=Ben E. King - Stand By Me
TTITLE1=Tom Jones - Delilah
TTITLE2=Whitney Houston - Heartbreak Hotel
TTITLE3=The Righteous Brothers - You've Lost That Loving Feeling
TTITLE4=Elton John - Daniel
TTITLE5=The Beatles - All You Need Is Love
TTITLE6=John Lennon - Imagine
TTITLE7=The Beatles - Paperback Writer
TTITLE8=Celine Dion - When I Need You
TTITLE9=Emotions - Best Of My Love
TTITLE10=Engelbert Humperdinck - There Goes My Everything
TTITLE11=Barry Manilow - Mandy
TTITLE12=George Michael and Elton John (Duet) - Don't Let The Sun Go Down On Me
TTITLE13=Elton John and Kiki Dee (Duet) - Don't Go Breaking My Heart
EXTD=
EXTT0=
EXTT1=
EXTT2=
EXTT3=
EXTT4=
EXTT5=
EXTT6=
EXTT7=
EXTT8=
EXTT9=
EXTT10=
EXTT11=
EXTT12=
EXTT13=
PLAYORDER=
